<svg width="720" height="250" viewBox="0 0 720 250" xmlns="http://www.w3.org/2000/svg" font-family="'JetBrains Mono','Fira Code',monospace">
  <defs>
    <linearGradient id="bg" x1="0" y1="0" x2="1" y2="1">
      <stop offset="0" stop-color="#05060a"/>
      <stop offset="1" stop-color="#0a0e17"/>
    </linearGradient>
    <linearGradient id="edge" x1="0" y1="0" x2="1" y2="0">
      <stop offset="0" stop-color="#00fff2"/>
      <stop offset="0.5" stop-color="#7b2ff7"/>
      <stop offset="1" stop-color="#ff2079"/>
    </linearGradient>
  </defs>
  <rect width="100%" height="100%" rx="12" fill="url(#bg)" stroke="url(#edge)" stroke-width="1.5"/>
  <rect x="14" y="14" width="692" height="34" fill="none" stroke="#1c2333" stroke-width="1"/>
  
  <circle cx="30" cy="31.0" r="4" fill="#ff2079"/>
  <circle cx="46" cy="31.0" r="4" fill="#7b2ff7">
    <animate attributeName="opacity" values="1;0.3;1" dur="1.4s" repeatCount="indefinite"/>
  </circle>
  <circle cx="62" cy="31.0" r="4" fill="#00fff2">
    <animate attributeName="opacity" values="0.4;1;0.4" dur="1.1s" repeatCount="indefinite"/>
  </circle>
  <text x="696" y="35.0" text-anchor="end" fill="#4a5568" font-size="11" letter-spacing="2">MODULE_02://CORE_STACK</text>
  <text x="26" y="82" fill="#00fff2" font-size="13">&gt;&gt; CORE_STACK // modules.loaded()</text>
  <rect x="26.0" y="100" width="62.5" height="26" rx="6" fill="none" stroke="#00fff2" stroke-width="1.2"/>
  <text x="57.2" y="117" text-anchor="middle" fill="#00fff2" font-size="11.5" letter-spacing="0.5">LINUX</text>
  <rect x="102.5" y="100" width="77.1" height="26" rx="6" fill="none" stroke="#00fff2" stroke-width="1.2"/>
  <text x="141.1" y="117" text-anchor="middle" fill="#00fff2" font-size="11.5" letter-spacing="0.5">WINDOWS</text>
  <rect x="193.6" y="100" width="69.8" height="26" rx="6" fill="none" stroke="#00fff2" stroke-width="1.2"/>
  <text x="228.5" y="117" text-anchor="middle" fill="#00fff2" font-size="11.5" letter-spacing="0.5">PYTHON</text>
  <rect x="277.4" y="100" width="47.9" height="26" rx="6" fill="none" stroke="#00fff2" stroke-width="1.2"/>
  <text x="301.3" y="117" text-anchor="middle" fill="#00fff2" font-size="11.5" letter-spacing="0.5">SQL</text>
  <rect x="339.3" y="100" width="47.9" height="26" rx="6" fill="none" stroke="#00fff2" stroke-width="1.2"/>
  <text x="363.2" y="117" text-anchor="middle" fill="#00fff2" font-size="11.5" letter-spacing="0.5">GIT</text>
  <rect x="401.2" y="100" width="69.8" height="26" rx="6" fill="none" stroke="#00fff2" stroke-width="1.2"/>
  <text x="436.1" y="117" text-anchor="middle" fill="#00fff2" font-size="11.5" letter-spacing="0.5">GITHUB</text>
  <rect x="26.0" y="146" width="99.0" height="26" rx="6" fill="none" stroke="#ff2079" stroke-width="1.2"/>
  <text x="75.5" y="163" text-anchor="middle" fill="#ff2079" font-size="11.5" letter-spacing="0.5">SERVICENOW</text>
  <rect x="139.0" y="146" width="55.2" height="26" rx="6" fill="none" stroke="#ff2079" stroke-width="1.2"/>
  <text x="166.6" y="163" text-anchor="middle" fill="#ff2079" font-size="11.5" letter-spacing="0.5">ITIL</text>
  <rect x="208.2" y="146" width="142.8" height="26" rx="6" fill="none" stroke="#ff2079" stroke-width="1.2"/>
  <text x="279.6" y="163" text-anchor="middle" fill="#ff2079" font-size="11.5" letter-spacing="0.5">ACTIVE DIRECTORY</text>
  <rect x="365.0" y="146" width="69.8" height="26" rx="6" fill="none" stroke="#ff2079" stroke-width="1.2"/>
  <text x="399.9" y="163" text-anchor="middle" fill="#ff2079" font-size="11.5" letter-spacing="0.5">VMWARE</text>
  <rect x="26.0" y="192" width="157.4" height="26" rx="6" fill="none" stroke="#7b2ff7" stroke-width="1.2"/>
  <text x="104.7" y="209" text-anchor="middle" fill="#7b2ff7" font-size="11.5" letter-spacing="0.5">TCP/IP - DNS - VPN</text>
  <rect x="197.4" y="192" width="223.1" height="26" rx="6" fill="none" stroke="#7b2ff7" stroke-width="1.2"/>
  <text x="308.9" y="209" text-anchor="middle" fill="#7b2ff7" font-size="11.5" letter-spacing="0.5">PHISHING &amp; MALWARE ANALYSIS</text>
</svg>