<svg width="720" height="292" viewBox="0 0 720 292" xmlns="http://www.w3.org/2000/svg" font-family="'JetBrains Mono','Fira Code',monospace">
  <defs>
    <linearGradient id="bg" x1="0" y1="0" x2="1" y2="1">
      <stop offset="0" stop-color="#05060a"/>
      <stop offset="1" stop-color="#0a0e17"/>
    </linearGradient>
    <linearGradient id="edge" x1="0" y1="0" x2="1" y2="0">
      <stop offset="0" stop-color="#00fff2"/>
      <stop offset="0.5" stop-color="#7b2ff7"/>
      <stop offset="1" stop-color="#ff2079"/>
    </linearGradient>
  </defs>
  <rect width="100%" height="100%" rx="12" fill="url(#bg)" stroke="url(#edge)" stroke-width="1.5"/>
  <rect x="14" y="14" width="692" height="34" fill="none" stroke="#1c2333" stroke-width="1"/>
  
  <circle cx="30" cy="31.0" r="4" fill="#ff2079"/>
  <circle cx="46" cy="31.0" r="4" fill="#7b2ff7">
    <animate attributeName="opacity" values="1;0.3;1" dur="1.4s" repeatCount="indefinite"/>
  </circle>
  <circle cx="62" cy="31.0" r="4" fill="#00fff2">
    <animate attributeName="opacity" values="0.4;1;0.4" dur="1.1s" repeatCount="indefinite"/>
  </circle>
  <text x="696" y="35.0" text-anchor="end" fill="#4a5568" font-size="11" letter-spacing="2">MODULE_03://TELEMETRY</text>
  <text x="26" y="82" fill="#00fff2" font-size="13">&gt;&gt; TELEMETRY // github.stats.pull()</text>
  <text x="26.0" y="136" fill="#00fff2" font-size="26" font-weight="bold">3</text>
  <rect x="26.0" y="150" width="137.0" height="5" rx="2.5" fill="#1c2333"/>
  <rect x="26.0" y="150" width="41.1" height="5" rx="2.5" fill="#00fff2"/>
  <text x="26.0" y="172" fill="#8b9bb4" font-size="10.5" letter-spacing="1">REPOS</text>
  <text x="193.0" y="136" fill="#ff2079" font-size="26" font-weight="bold">11</text>
  <rect x="193.0" y="150" width="137.0" height="5" rx="2.5" fill="#1c2333"/>
  <rect x="193.0" y="150" width="50.2" height="5" rx="2.5" fill="#ff2079"/>
  <text x="193.0" y="172" fill="#8b9bb4" font-size="10.5" letter-spacing="1">CONTRIBUTIONS</text>
  <text x="360.0" y="136" fill="#7b2ff7" font-size="26" font-weight="bold">1</text>
  <rect x="360.0" y="150" width="137.0" height="5" rx="2.5" fill="#1c2333"/>
  <rect x="360.0" y="150" width="27.4" height="5" rx="2.5" fill="#7b2ff7"/>
  <text x="360.0" y="172" fill="#8b9bb4" font-size="10.5" letter-spacing="1">STARS</text>
  <text x="527.0" y="136" fill="#00fff2" font-size="26" font-weight="bold">0</text>
  <rect x="527.0" y="150" width="137.0" height="5" rx="2.5" fill="#1c2333"/>
  <rect x="527.0" y="150" width="4.0" height="5" rx="2.5" fill="#00fff2"/>
  <text x="527.0" y="172" fill="#8b9bb4" font-size="10.5" letter-spacing="1">FOLLOWERS</text>
  <line x1="26" y1="206" x2="694" y2="206" stroke="#1c2333" stroke-width="1"/>
  <text x="26" y="236" fill="#00fff2" font-size="12.5">&gt;&gt; LANGUAGE_STACK</text>
  <text x="26" y="267" fill="#8b9bb4" font-size="12">HTML</text>
  <rect x="96" y="253" width="578" height="10" rx="5" fill="#1c2333"/>
  <rect x="96" y="253" width="578" height="10" rx="5" fill="#ff2079"/>
  <text x="684" y="267" fill="#8b9bb4" font-size="11">100%</text>
</svg>